<svg xmlns="http://www.w3.org/2000/svg" xmlns:xlink="http://www.w3.org/1999/xlink" viewBox="0,0,256,256" width="100px" height="100px"><g fill="#827444" fill-rule="nonzero" stroke="none" stroke-width="1" stroke-linecap="butt" stroke-linejoin="miter" stroke-miterlimit="10" stroke-dasharray="" stroke-dashoffset="0" font-family="none" font-weight="none" font-size="none" text-anchor="none" style="mix-blend-mode: normal"><g transform="scale(2.56,2.56)"><path d="M31,17c-7.72039,0 -14,6.27961 -14,14v38c0,7.72039 6.27961,14 14,14h38c7.72039,0 14,-6.27961 14,-14v-38c0,-7.72039 -6.27961,-14 -14,-14zM31,19h38c6.63961,0 12,5.36039 12,12v38c0,6.63961 -5.36039,12 -12,12h-38c-6.63961,0 -12,-5.36039 -12,-12v-38c0,-6.63961 5.36039,-12 12,-12zM32.5,22c-5.7932,0 -10.5,4.7068 -10.5,10.5v35c0,5.7932 4.7068,10.5 10.5,10.5h35c5.7932,0 10.5,-4.7068 10.5,-10.5v-19c0.00255,-0.18032 -0.09219,-0.34804 -0.24794,-0.43894c-0.15575,-0.0909 -0.34838,-0.0909 -0.50413,0c-0.15575,0.0909 -0.25049,0.25863 -0.24794,0.43894v19c0,5.2528 -4.2472,9.5 -9.5,9.5h-35c-5.2528,0 -9.5,-4.2472 -9.5,-9.5v-35c0,-5.2528 4.2472,-9.5 9.5,-9.5h34c0.18032,0.00255 0.34804,-0.09219 0.43894,-0.24794c0.0909,-0.15575 0.0909,-0.34838 0,-0.50413c-0.0909,-0.15575 -0.25863,-0.25049 -0.43894,-0.24794zM64.50781,30.5c-0.0235,-0.00035 -0.047,0.00095 -0.07031,0.00391c0,0.00001 -3.97917,0.49609 -7.9375,0.49609h-23c-0.27613,0.00003 -0.49997,0.22387 -0.5,0.5v2c0.00027,0.23904 0.16968,0.44446 0.4043,0.49023l2.75586,0.53516c0.88284,0.17073 1.28288,0.46022 1.51953,0.83594c0.23665,0.37572 0.32031,0.92323 0.32031,1.63867v26.5c0,0.92767 -0.18505,1.43982 -0.53906,1.82813c-0.35401,0.38831 -0.95002,0.68698 -1.85742,0.97656l-2.25586,0.71875c-0.20585,0.06586 -0.3461,0.25653 -0.34766,0.47266l-0.01758,2c-0.00103,0.13328 0.05119,0.26145 0.14507,0.35607c0.09388,0.09461 0.22164,0.14783 0.35493,0.14784h31.51758c0.25197,-0.00001 0.46458,-0.18751 0.49609,-0.4375l1.5,-12c0.01792,-0.14237 -0.02619,-0.28559 -0.1211,-0.39321c-0.09492,-0.10762 -0.23149,-0.16928 -0.37499,-0.16929h-2c-0.20471,-0.00021 -0.38887,0.12437 -0.46484,0.31445l-2.10937,5.29102c-0.77753,1.75289 -1.61803,2.549 -2.56055,2.96094c-0.9434,0.41232 -2.0594,0.43359 -3.36523,0.43359h-6.64062c-1.24136,0 -2.08201,-0.25218 -2.59375,-0.68555c-0.51174,-0.43337 -0.77734,-1.07788 -0.77734,-2.10937l0.01172,-10.20508h6.97266c0.69458,0.0505 1.21097,0.16192 1.5957,0.43555c0.38661,0.27495 0.71081,0.74017 0.94727,1.68555l0.5,2c0.05553,0.22239 0.25516,0.37855 0.48438,0.37891h2c0.27613,-0.00003 0.49997,-0.22387 0.5,-0.5v-13.5c-0.00003,-0.27613 -0.22387,-0.49997 -0.5,-0.5h-2c-0.24799,0.00032 -0.45828,0.18235 -0.49414,0.42773l-0.4043,2.7207c-0.1095,0.73768 -0.50438,1.15919 -1.02148,1.44922c-0.51711,0.29003 -1.16108,0.40234 -1.58008,0.40234h-7v-11.5c0,-0.83501 0.66499,-1.5 1.5,-1.5h10c0.91017,0 1.63472,0.34231 2.25,1.09766c0.61528,0.75535 1.095,1.95315 1.33594,3.60156l0.41992,2.87305c0.03586,0.24538 0.24615,0.42741 0.49414,0.42773h2c0.26796,0.00022 0.48846,-0.21081 0.5,-0.47852l0.5,-11.5c0.0058,-0.13494 -0.04323,-0.26649 -0.13593,-0.36472c-0.09271,-0.09822 -0.22121,-0.15477 -0.35626,-0.15677zM63.97656,31.5332l-0.45508,10.4668h-1.08984l-0.35547,-2.44531c0,-0.00065 0,-0.0013 0,-0.00195c-0.25806,-1.76554 -0.77356,-3.13179 -1.55078,-4.08594c-0.77722,-0.95415 -1.84256,-1.4668 -3.02539,-1.4668h-10c-1.37499,0 -2.5,1.12501 -2.5,2.5v12c0.00003,0.27613 0.22387,0.49997 0.5,0.5h7.5c0.581,0 1.35346,-0.13028 2.06836,-0.53125c0.7149,-0.40097 1.36694,-1.1195 1.52344,-2.17383l0.33984,-2.29492h1.06836v12.5h-1.10937l-0.40625,-1.62109c-0.27154,-1.08562 -0.7158,-1.81677 -1.33594,-2.25781c-0.62014,-0.44105 -1.348,-0.56429 -2.11328,-0.61914c-0.01169,-0.00106 -0.02342,-0.00171 -0.03516,-0.00195h-7.5c-0.27613,0.00003 -0.49997,0.22387 -0.5,0.5l-0.01172,10.70508c0,1.2175 0.36109,2.22116 1.13086,2.87305c0.76977,0.65188 1.86559,0.92188 3.24023,0.92188h6.64063c1.31017,0 2.57603,0.0043 3.76563,-0.51562c1.1896,-0.51993 2.23231,-1.57189 3.07617,-3.47656c0.00272,-0.00581 0.00532,-0.01167 0.00781,-0.01758l1.99023,-4.99023h1.09375l-1.375,11h-30.57227l0.00977,-1.13281l1.91016,-0.60938c0.96956,-0.30942 1.74568,-0.65341 2.29492,-1.25586c0.54924,-0.60244 0.79883,-1.42962 0.79883,-2.50195v-26.5c0,-0.78456 -0.07226,-1.53309 -0.47461,-2.17187c-0.40235,-0.63878 -1.12462,-1.08188 -2.17578,-1.28516l-2.34961,-0.45508v-1.08789h22.5c3.74793,0 6.95424,-0.40382 7.47656,-0.4668zM77.49219,36.99219c-0.13261,0.00207 -0.25896,0.05673 -0.35127,0.15197c-0.0923,0.09523 -0.14299,0.22324 -0.14092,0.35584v2c-0.00255,0.18032 0.09219,0.34804 0.24794,0.43894c0.15575,0.0909 0.34838,0.0909 0.50413,0c0.15575,-0.0909 0.25049,-0.25863 0.24794,-0.43894v-2c0.00212,-0.13532 -0.0507,-0.26572 -0.1464,-0.36141c-0.0957,-0.0957 -0.22609,-0.14852 -0.36141,-0.1464zM77.49219,40.99219c-0.13261,0.00207 -0.25896,0.05673 -0.35127,0.15197c-0.0923,0.09523 -0.14299,0.22324 -0.14092,0.35584v4c-0.00255,0.18032 0.09219,0.34804 0.24794,0.43894c0.15575,0.0909 0.34838,0.0909 0.50413,0c0.15575,-0.0909 0.25049,-0.25863 0.24794,-0.43894v-4c0.00212,-0.13532 -0.0507,-0.26572 -0.1464,-0.36141c-0.0957,-0.0957 -0.22609,-0.14852 -0.36141,-0.1464z"></path></g></g></svg>